<?xml version="1.0" encoding="utf-8"?>
<!-- Generator: Adobe Illustrator 16.0.0, SVG Export Plug-In . SVG Version: 6.00 Build 0)  -->
<!DOCTYPE svg PUBLIC "-//W3C//DTD SVG 1.1//EN" "http://www.w3.org/Graphics/SVG/1.1/DTD/svg11.dtd">
<svg version="1.1" id="Lager_1" xmlns="http://www.w3.org/2000/svg" xmlns:xlink="http://www.w3.org/1999/xlink" x="0px" y="0px"
	 width="26.832px" height="22.65px" viewBox="0 0 26.832 22.65" enable-background="new 0 0 26.832 22.65" xml:space="preserve">
<path fill="#FFFFFF" stroke="#000000" stroke-width="0.2892" d="M-46.01-19.658"/>
<path fill="#383838" d="M24.216,11.184c0.46-0.521,0.72-1.151,0.72-1.771c0-0.632-0.254-1.209-0.721-1.633
	c-0.314-0.274-0.872-0.602-1.742-0.602h-4.634c0.151-0.896,0.291-1.825,0.338-2.133l0.021-0.151
	c0.007-0.086,0.011-0.169,0.004-0.239c-0.12-1.716-1.177-3.675-1.185-3.689c-0.147-0.273-0.377-0.484-0.67-0.612
	c-0.438-0.181-0.869-0.272-1.279-0.272c-0.911,0-1.584,0.445-1.917,0.869c-0.186,0.247-0.283,0.541-0.28,0.845l0.005,0.192
	c0.012,0.475,0.045,1.771,0.052,2.342c-0.333,0.796-2.295,3.942-2.682,4.291c-0.083,0.07-0.192,0.151-0.315,0.239
	c-0.23-0.175-0.513-0.274-0.809-0.274H3.238c-0.375,0-0.736,0.16-0.984,0.433C1.997,9.29,1.867,9.659,1.897,10.029l0.682,8.699
	c0.056,0.693,0.646,1.237,1.343,1.237h5.202c0.71,0,1.294-0.555,1.343-1.255c0.022,0.016,0.044,0.029,0.065,0.043
	c0.366,0.233,0.919,0.586,1.628,0.586h7.76c1.855,0,3.102-1.461,3.102-2.824c0-0.2-0.024-0.396-0.076-0.586
	c0.455-0.512,0.712-1.145,0.712-1.776c0-0.205-0.024-0.401-0.073-0.589c0.455-0.511,0.711-1.146,0.711-1.78
	C24.293,11.579,24.268,11.378,24.216,11.184z M8.623,18.117h-4.24l-0.604-7.69h4.844V18.117z M21.833,10.369v0.012
	c-0.269,0.019-0.479,0.226-0.479,0.485s0.213,0.467,0.479,0.485v0.018c0.231,0,0.413,0.05,0.513,0.14
	c0.067,0.062,0.104,0.148,0.104,0.261c0,0.405-0.446,0.993-1.254,0.993v0.014c-0.276,0.009-0.498,0.224-0.498,0.489
	c0,0.265,0.222,0.479,0.498,0.488v0.009c0.232,0,0.416,0.049,0.516,0.138c0.023,0.021,0.1,0.089,0.1,0.25
	c0,0.397-0.444,0.974-1.25,0.974v0.005c-0.006,0-0.013-0.004-0.02-0.004c-0.285,0-0.516,0.222-0.516,0.492
	c0,0.272,0.229,0.493,0.516,0.493c0.007,0,0.014-0.004,0.02-0.004v0.018c0.231,0,0.414,0.049,0.513,0.139
	c0.024,0.021,0.101,0.09,0.101,0.254c0,0.399-0.445,0.979-1.253,0.979h-7.76c-0.175,0-0.423-0.159-0.642-0.3
	c-0.291-0.188-0.592-0.382-0.943-0.382h-0.105v-6.107c0.449-0.284,0.762-0.502,0.979-0.682c0.609-0.518,3.331-4.767,3.331-5.52
	c0-0.409-0.036-1.904-0.053-2.499c0.133-0.07,0.41-0.112,0.742-0.007c0.219,0.445,0.799,1.705,0.881,2.73
	c-0.058,0.396-0.425,2.874-0.625,3.673l-0.154,0.621h6.9c0.231,0,0.416,0.049,0.516,0.137c0.023,0.021,0.099,0.087,0.099,0.244
	C23.086,9.799,22.641,10.369,21.833,10.369z"/>
</svg>
