<?xml version="1.0" encoding="utf-8"?>
<!-- Generator: Adobe Illustrator 16.0.0, SVG Export Plug-In . SVG Version: 6.00 Build 0)  -->
<!DOCTYPE svg PUBLIC "-//W3C//DTD SVG 1.1//EN" "http://www.w3.org/Graphics/SVG/1.1/DTD/svg11.dtd">
<svg version="1.1" id="Lager_1" xmlns="http://www.w3.org/2000/svg" xmlns:xlink="http://www.w3.org/1999/xlink" x="0px" y="0px"
	 width="255.514px" height="25.991px" viewBox="0 0 255.514 25.991" enable-background="new 0 0 255.514 25.991"
	 xml:space="preserve">
<g>
	<path fill="#EB4E9A" d="M21.597,20.466h-5.866l-2.315-9.233l-2.262,9.233H5.261L0,0.763h5.551l2.973,12.442l2.709-12.442h2.183
		h0.026h2.21l2.709,12.442l2.946-12.442h5.524L21.597,20.466z"/>
	<path fill="#EB4E9A" d="M40.036,12.206v2.42v0.079H32.17v0.421c0,0.947,0.289,1.525,0.868,1.736
		c0.395,0.105,0.842,0.184,1.552,0.184h0.342c1.499,0,3.078-0.157,4.735-0.499h0.026v3.524c0,0.053-0.737,0.185-2.209,0.422
		c-0.921,0.104-2,0.157-3.183,0.157c-3.078,0-5.077-1.052-5.972-3.13c-0.342-0.842-0.5-1.711-0.5-2.578v-3.368
		c0-2.473,1.026-4.104,3.104-4.919c0.973-0.316,1.92-0.447,2.946-0.447c2.894,0,4.788,0.947,5.656,2.841
		C39.878,9.812,40.036,10.865,40.036,12.206z M35.064,9.812c-0.316-0.21-0.71-0.316-1.158-0.316c-1.236,0-1.736,0.553-1.736,1.631
		v0.658h3.525v-0.237C35.695,10.575,35.485,9.997,35.064,9.812z"/>
	<path fill="#EB4E9A" d="M54.371,12.259v1.394c0,2.262-0.158,3.683-0.5,4.235c-0.105,0.343-0.421,0.789-0.921,1.289
		c-1.052,0.975-2.841,1.474-5.393,1.474c-1.763,0-3.657-0.185-5.735-0.579V0.763L46.137,0v6.761
		c1.184-0.395,2.394-0.526,3.104-0.526c2.499,0,4.025,0.657,4.63,1.946C54.213,8.734,54.371,10.102,54.371,12.259z M48.821,9.891
		h-0.369h-0.289c-0.684,0-1.368,0.184-2.026,0.579v6.55l1.263,0.078h0.342c1.236,0,1.973-0.395,2.183-1.209
		c0.079-0.237,0.105-0.5,0.105-0.842V11.47C50.031,10.602,49.636,10.075,48.821,9.891z"/>
	<path fill="#EB4E9A" d="M68.627,12.259v1.394c0,2.262-0.158,3.683-0.5,4.235c-0.105,0.343-0.421,0.789-0.921,1.289
		c-1.052,0.975-2.841,1.474-5.393,1.474c-1.763,0-3.657-0.185-5.735-0.579V0.763L60.394,0v6.761
		c1.184-0.395,2.394-0.526,3.104-0.526c2.499,0,4.024,0.657,4.63,1.946C68.47,8.734,68.627,10.102,68.627,12.259z M63.077,9.891
		h-0.369h-0.289c-0.684,0-1.368,0.184-2.026,0.579v6.55l1.263,0.078h0.342c1.236,0,1.973-0.395,2.183-1.209
		c0.079-0.237,0.105-0.5,0.105-0.842V11.47C64.287,10.602,63.893,10.075,63.077,9.891z"/>
	<path fill="#EB4E9A" d="M70.862,8.181c0.579-1.289,2.131-1.946,4.63-1.946c0.921,0.026,2.157,0.236,3.078,0.526
		c0,0.605,0.026-0.895,0.026-2.552c0-0.973,0-2.104,0.026-3.446L82.911,0v20.099c-2.104,0.342-3.972,0.552-5.761,0.552
		c-2.551,0-4.34-0.499-5.393-1.474c-0.5-0.525-0.789-0.946-0.895-1.289c-0.342-0.552-0.526-1.973-0.526-4.235v-1.394
		C70.336,10.128,70.521,8.787,70.862,8.181z M74.782,15.89c0.237,0.814,0.973,1.209,2.236,1.209h0.29l1.263-0.053v-6.55
		c-0.631-0.395-1.289-0.605-2-0.605h-0.315l-0.316,0.026c-0.842,0.158-1.263,0.684-1.263,1.579v3.524
		C74.677,15.337,74.703,15.6,74.782,15.89z"/>
	<path fill="#EB4E9A" d="M96.983,12.206v2.42v0.079h-7.865v0.421c0,0.947,0.289,1.525,0.868,1.736
		c0.395,0.105,0.842,0.184,1.552,0.184h0.342c1.499,0,3.078-0.157,4.735-0.499h0.026v3.524c0,0.053-0.737,0.185-2.209,0.422
		c-0.921,0.104-2,0.157-3.183,0.157c-3.078,0-5.077-1.052-5.972-3.13c-0.342-0.842-0.5-1.711-0.5-2.578v-3.368
		c0-2.473,1.026-4.104,3.104-4.919c0.973-0.316,1.92-0.447,2.946-0.447c2.894,0,4.788,0.947,5.656,2.841
		C96.825,9.812,96.983,10.865,96.983,12.206z M92.011,9.812c-0.316-0.21-0.71-0.316-1.158-0.316c-1.236,0-1.736,0.553-1.736,1.631
		v0.658h3.525v-0.237C92.643,10.575,92.432,9.997,92.011,9.812z"/>
	<path fill="#EB4E9A" d="M104.374,20.65c-2.078,0-4.288-0.263-5.366-0.474l-0.395-3.762c0.973,0.211,6.55,1.315,7.103,0
		c0.526-1.395-4.13-1.105-6.208-3.078c-1.052-0.921-1.078-2.131-1-3.052c0.421-3.656,3.894-3.946,5.919-4.024
		c1.894-0.079,3.762,0.158,4.84,0.342l0.395,3.709c-1.342-0.289-6.05-1.026-6.55,0.158c-0.605,1.42,4.341,1.315,6.208,3.078
		c1,1,1.026,2.131,0.947,3.104C109.845,20.256,106.426,20.571,104.374,20.65z"/>
	<path fill="#EB4E9A" d="M116.131,2.92c0,0.526-0.053,1.158-0.552,1.552c-0.395,0.395-1.21,0.447-1.71,0.447
		c-0.526,0-1.289-0.053-1.789-0.447c-0.421-0.395-0.474-1.052-0.474-1.552c0-0.447,0.053-1.184,0.474-1.578
		c0.5-0.395,1.184-0.447,1.789-0.447c0.605,0,1.315,0.053,1.71,0.447C116.079,1.736,116.131,2.42,116.131,2.92z M111.686,20.466
		h4.34V6.471h-4.34V20.466z"/>
	<path fill="#EB4E9A" d="M130.336,20.466v0.5c-0.079,0.632-0.236,1.264-0.474,1.868c-0.921,2.104-2.92,3.157-6.024,3.157
		c-1.184,0-2.236-0.053-3.13-0.158c-1.473-0.236-2.21-0.369-2.21-0.422v-3.472l0.026-0.026c1.71,0.342,3.262,0.474,4.709,0.474
		h0.342c0.71,0,1.21-0.079,1.552-0.21c0.605-0.237,0.92-0.789,0.92-1.711v-0.473c-0.263,0.105-0.552,0.184-0.868,0.263
		c-0.552,0.132-1.341,0.237-2.262,0.237c-2.499,0-4.025-0.658-4.63-1.947c-0.342-0.5-0.526-1.867-0.526-4.051v-1.394
		c0-2.236,0.131-3.367,0.526-4.235c0.29-0.658,0.895-1.868,2.499-2.368c2.341-0.631,4.419,0.026,5.814,0.79
		c0-0.21,0.026-0.421,0.105-0.605c0.026-0.079,0.053-0.185,0.079-0.29h3.578v13.731C130.336,20.256,130.336,20.36,130.336,20.466z
		 M124.864,10.154c-0.184-0.026-0.342-0.053-0.474-0.079c-1.184-0.158-1.92,0.184-2.157,1.026c-0.079,0.263-0.131,0.526-0.131,0.816
		v3.341c0,0.894,0.421,1.421,1.263,1.578l0.342,0.053h0.263c0.658,0,1.368-0.21,2.078-0.632v-5.761
		C125.548,10.312,125.153,10.233,124.864,10.154z"/>
	<path fill="#EB4E9A" d="M144.75,12.259v8.207h-4.34V11.47c0-0.868-0.422-1.395-1.236-1.579c-0.264-0.026-0.553-0.053-0.842-0.026
		c-0.5,0.079-1.132,0.185-1.842,0.605v9.996h-4.314V6.419h3.578l0.131,0.263c0.079,0.184,0.184,0.368,0.264,0.657
		c0.289-0.131,1.684-1,3.814-1.078c1.684-0.079,3.183,0.131,4.262,1.92C144.619,8.918,144.75,10.075,144.75,12.259z"/>
	<path fill="#EB4E9A" d="M150.904,12.627h0.026l3.919-6.182h4.656l-4.287,6.787l4.287,7.234h-4.656l-3.919-6.523h-0.026v6.523
		h-4.314V0.763L150.904,0V12.627z"/>
	<path fill="#EB4E9A" d="M161.215,14.547V6.445h4.394v8.892c0,0.867,0.421,1.42,1.263,1.604c0.263,0.026,0.553,0.052,0.842,0.026
		c0.5-0.026,1.184-0.158,1.895-0.605l0.025-9.917H174v14.021h-3.604l-0.158-0.236c-0.079-0.184-0.158-0.342-0.236-0.631
		c-0.343,0.131-1.764,0.973-3.895,1.052c-1.735,0.079-3.234-0.157-4.366-1.974C161.347,17.862,161.215,16.757,161.215,14.547z"/>
	<path fill="#EB4E9A" d="M184.521,6.208l0.421,3.709c-0.525-0.026-1.499,0.053-1.842,0.132l-0.289,0.052
		c-0.631,0.132-1.499,0.421-2.656,0.842v0.71v8.812h-4.288V6.34h3.552c0.025,0.105,0.078,0.21,0.131,0.316
		c0.079,0.184,0.158,0.421,0.236,0.71c0.342-0.131,0.5-0.184,1-0.368c0.605-0.21,1.263-0.395,2.078-0.579
		C183.416,6.287,183.969,6.235,184.521,6.208z"/>
	<path fill="#EB4E9A" d="M191.912,20.65c-2.078,0-4.288-0.263-5.367-0.474l-0.395-3.762c0.974,0.211,6.551,1.315,7.104,0
		c0.525-1.395-4.131-1.105-6.209-3.078c-1.053-0.921-1.078-2.131-1-3.052c0.422-3.656,3.895-3.946,5.92-4.024
		c1.894-0.079,3.762,0.158,4.84,0.342l0.395,3.709c-1.342-0.289-6.051-1.026-6.551,0.158c-0.604,1.42,4.342,1.315,6.209,3.078
		c1,1,1.025,2.131,0.947,3.104C197.383,20.256,193.964,20.571,191.912,20.65z"/>
	<path fill="#EB4E9A" d="M211.561,12.206v2.42v0.079h-7.865v0.421c0,0.947,0.289,1.525,0.868,1.736
		c0.395,0.105,0.842,0.184,1.552,0.184h0.342c1.5,0,3.078-0.157,4.735-0.499h0.026v3.524c0,0.053-0.736,0.185-2.21,0.422
		c-0.921,0.104-1.999,0.157-3.183,0.157c-3.078,0-5.077-1.052-5.972-3.13c-0.342-0.842-0.5-1.711-0.5-2.578v-3.368
		c0-2.473,1.026-4.104,3.104-4.919c0.973-0.316,1.92-0.447,2.946-0.447c2.894,0,4.788,0.947,5.655,2.841
		C211.402,9.812,211.561,10.865,211.561,12.206z M206.589,9.812c-0.315-0.21-0.71-0.316-1.157-0.316
		c-1.236,0-1.736,0.553-1.736,1.631v0.658h3.525v-0.237C207.221,10.575,207.01,9.997,206.589,9.812z"/>
	<path fill="#EB4E9A" d="M222.056,6.208l0.421,3.709c-0.525-0.026-1.499,0.053-1.842,0.132l-0.289,0.052
		c-0.631,0.132-1.499,0.421-2.656,0.842v0.71v8.812h-4.288V6.34h3.552c0.025,0.105,0.078,0.21,0.131,0.316
		c0.079,0.184,0.158,0.421,0.236,0.71c0.342-0.131,0.5-0.184,1-0.368c0.605-0.21,1.263-0.395,2.078-0.579
		C220.951,6.287,221.504,6.235,222.056,6.208z"/>
	<path fill="#303031" d="M227.947,16.993c0.5,0.396,0.553,1.105,0.553,1.553c0,0.526-0.053,1.263-0.553,1.605
		c-0.422,0.395-1.236,0.473-1.736,0.473s-1.315-0.078-1.71-0.473c-0.5-0.343-0.579-1.079-0.579-1.605
		c0-0.447,0.079-1.157,0.579-1.553c0.395-0.42,1.104-0.446,1.71-0.446S227.525,16.573,227.947,16.993z"/>
	<path fill="#303031" d="M235.864,20.65c-2.078,0-4.288-0.263-5.366-0.474l-0.395-3.762c0.973,0.211,6.55,1.315,7.103,0
		c0.526-1.395-4.13-1.105-6.208-3.078c-1.053-0.921-1.079-2.131-1-3.052c0.421-3.656,3.894-3.946,5.919-4.024
		c1.894-0.079,3.762,0.158,4.841,0.342l0.395,3.709c-1.342-0.289-6.051-1.026-6.551,0.158c-0.605,1.42,4.341,1.315,6.209,3.078
		c0.999,1,1.025,2.131,0.946,3.104C241.336,20.256,237.916,20.571,235.864,20.65z"/>
	<path fill="#303031" d="M255.514,12.206v2.42v0.079h-7.865v0.421c0,0.947,0.289,1.525,0.868,1.736
		c0.395,0.105,0.842,0.184,1.552,0.184h0.342c1.5,0,3.078-0.157,4.735-0.499h0.026v3.524c0,0.053-0.736,0.185-2.21,0.422
		c-0.921,0.104-1.999,0.157-3.183,0.157c-3.078,0-5.077-1.052-5.972-3.13c-0.342-0.842-0.5-1.711-0.5-2.578v-3.368
		c0-2.473,1.026-4.104,3.104-4.919c0.973-0.316,1.92-0.447,2.946-0.447c2.894,0,4.788,0.947,5.655,2.841
		C255.355,9.812,255.514,10.865,255.514,12.206z M250.542,9.812c-0.315-0.21-0.71-0.316-1.157-0.316
		c-1.236,0-1.736,0.553-1.736,1.631v0.658h3.525v-0.237C251.174,10.575,250.963,9.997,250.542,9.812z"/>
</g>
</svg>
